<svg id="Layer_1" data-name="Layer 1" xmlns="http://www.w3.org/2000/svg" viewBox="0 0 94.31 94.31"><defs><style>.cls-1{fill:#ff8600;fill-rule:evenodd;}</style></defs><path class="cls-1" d="M47.15,0h0A47.29,47.29,0,0,1,94.31,47.15h0A47.3,47.3,0,0,1,47.15,94.31h0A47.29,47.29,0,0,1,0,47.15H0A47.29,47.29,0,0,1,47.15,0Zm0,5.22A42.06,42.06,0,0,0,5.22,47.15h0A42.06,42.06,0,0,0,47.15,89.08h0A42.06,42.06,0,0,0,89.08,47.15h0A42.06,42.06,0,0,0,47.15,5.22Z"/><path class="cls-1" d="M37.63,54.38,64.79,27.22a6,6,0,0,1,8.47,8.47L41.89,67.05l0,0a6,6,0,0,1-8.47,0L32.26,66h0L21.05,54.74a6,6,0,0,1,8.47-8.46Z"/></svg>