<svg id="Layer_1" data-name="Layer 1" xmlns="http://www.w3.org/2000/svg" viewBox="0 0 97.29 97.29"><defs><style>.cls-1{fill:#ff8600;stroke:#ff8600;stroke-miterlimit:10;stroke-width:2.2px;}</style></defs><path class="cls-1" d="M48.64,1.1A47.53,47.53,0,1,1,15,15,47.4,47.4,0,0,1,48.64,1.1Zm31.52,16A44.55,44.55,0,1,0,93.22,48.64,44.43,44.43,0,0,0,80.16,17.13Z"/><path class="cls-1" d="M48.64,1.1c6.76,0,12.77,5.48,17,14.33C69.79,24,72.34,35.7,72.34,48.64s-2.55,24.69-6.66,33.22c-4.27,8.85-10.28,14.33-17,14.33s-12.77-5.48-17-14.33C27.49,73.33,25,61.58,25,48.64S27.49,24,31.61,15.43C35.87,6.58,41.89,1.1,48.64,1.1ZM63,16.72C59.24,8.9,54.16,4.07,48.64,4.07S38,8.9,34.27,16.72c-3.92,8.14-6.35,19.43-6.35,31.92s2.43,23.79,6.35,31.93C38,88.38,43.13,93.22,48.64,93.22S59.24,88.38,63,80.57c3.93-8.14,6.36-19.43,6.36-31.93S66.94,24.86,63,16.72Z"/><path class="cls-1" d="M9,70.37a1.49,1.49,0,1,0,0,3H88.46a1.49,1.49,0,0,0,0-3Z"/><path class="cls-1" d="M2.7,47.16a1.49,1.49,0,1,0,0,3h92a1.49,1.49,0,1,0,0-3Z"/><path class="cls-1" d="M9,23.94a1.49,1.49,0,1,0,0,3H88.46a1.49,1.49,0,0,0,0-3Z"/></svg>