<svg id="Layer_1" data-name="Layer 1" xmlns="http://www.w3.org/2000/svg" viewBox="0 0 105.92 105.94"><defs><style>.cls-1{fill:#ff8600;stroke:#ff8600;stroke-miterlimit:10;stroke-width:3.27px;fill-rule:evenodd;}</style></defs><path class="cls-1" d="M33,19.88a1.56,1.56,0,0,1-1.35-.78l-4.89-8.47a1.56,1.56,0,0,1,2.7-1.56l4.89,8.47A1.56,1.56,0,0,1,33,19.88Zm31.3,52c-.89,0-10.91-4.29-11.3-4.29L42.23,71.8a1.57,1.57,0,0,1-2.13-1.55l.67-11.5-7.3-8.91a1.56,1.56,0,0,1,.81-2.49l11.15-2.92,6.22-9.7a1.56,1.56,0,0,1,2.62,0l6.22,9.7,11.14,2.92a1.55,1.55,0,0,1,.81,2.49l-7.3,8.91.67,11.5a1.56,1.56,0,0,1-1.55,1.65ZM53,64.38c.66,0,8.34,3.14,9.6,3.63L62,58.33a1.56,1.56,0,0,1,.35-1.08l6.14-7.5-9.38-2.46a1.59,1.59,0,0,1-.92-.67L53,38.46l-5.24,8.16a1.57,1.57,0,0,1-.91.67l-9.38,2.46,6.14,7.5a1.56,1.56,0,0,1,.35,1.08L43.36,68c1.26-.49,8.93-3.63,9.6-3.63Zm0,22A33.39,33.39,0,1,0,19.57,53,33.43,33.43,0,0,0,53,86.35Zm0-63.66A30.27,30.27,0,1,0,83.23,53,30.31,30.31,0,0,0,53,22.69Zm0-8.17A1.56,1.56,0,0,1,51.4,13V3.18a1.56,1.56,0,0,1,3.12,0V13A1.56,1.56,0,0,1,53,14.52Zm20,5.36a1.57,1.57,0,0,1-1.35-2.34L76.5,9.07a1.56,1.56,0,0,1,2.7,1.55L74.31,19.1a1.56,1.56,0,0,1-1.35.78ZM87.6,34.52a1.56,1.56,0,0,1-.78-2.91l8.47-4.89a1.56,1.56,0,0,1,1.56,2.7l-8.47,4.89a1.58,1.58,0,0,1-.78.21Zm15.14,20H93a1.56,1.56,0,0,1,0-3.12h9.78a1.56,1.56,0,0,1,0,3.12ZM96.07,79.41a1.6,1.6,0,0,1-.78-.21l-8.47-4.89a1.56,1.56,0,0,1,1.56-2.7l8.47,4.89a1.56,1.56,0,0,1-.78,2.91ZM77.85,97.63a1.56,1.56,0,0,1-1.35-.78l-4.89-8.47a1.56,1.56,0,0,1,2.7-1.56l4.89,8.47a1.56,1.56,0,0,1-1.35,2.34ZM53,104.3a1.56,1.56,0,0,1-1.56-1.56V93a1.56,1.56,0,0,1,3.12,0v9.78A1.56,1.56,0,0,1,53,104.3ZM28.07,97.63a1.56,1.56,0,0,1-1.35-2.34l4.89-8.47a1.56,1.56,0,0,1,2.7,1.56l-4.89,8.47a1.56,1.56,0,0,1-1.35.78ZM9.85,79.41a1.56,1.56,0,0,1-.78-2.91l8.47-4.89a1.56,1.56,0,0,1,1.56,2.7L10.63,79.2a1.6,1.6,0,0,1-.78.21ZM13,54.52H3.18a1.56,1.56,0,0,1,0-3.12H13a1.56,1.56,0,0,1,0,3.12Zm5.35-20a1.54,1.54,0,0,1-.77-.21L9.07,29.42a1.56,1.56,0,0,1,1.56-2.7l8.47,4.89A1.56,1.56,0,0,1,18.31,34.52Z"/></svg>