<svg id="Layer_1" data-name="Layer 1" xmlns="http://www.w3.org/2000/svg" viewBox="0 0 104.54 78.74"><defs><style>.cls-1{fill:#ff8600;}</style></defs><path class="cls-1" d="M84.92,62.38H69.44a3.27,3.27,0,1,1,0-6.53H84.92a3.27,3.27,0,1,1,0,6.53Z"/><path class="cls-1" d="M88.21,0H16.33A16.35,16.35,0,0,0,0,16.33V62.4A16.36,16.36,0,0,0,16.33,78.74H88.21A16.36,16.36,0,0,0,104.54,62.4V16.33A16.35,16.35,0,0,0,88.21,0ZM6.53,25.22H98V35.35H6.53Zm9.8-18.69H88.21a9.82,9.82,0,0,1,9.8,9.8v2.35H6.53V16.33A9.82,9.82,0,0,1,16.33,6.53ZM88.21,72.2H16.33a9.81,9.81,0,0,1-9.8-9.8V41.89H98V62.4A9.81,9.81,0,0,1,88.21,72.2Z"/></svg>